<svg 
 xmlns="http://www.w3.org/2000/svg"
 xmlns:xlink="http://www.w3.org/1999/xlink"
 width="15px" height="15px">
<path fill-rule="evenodd"  fill="rgb(97, 97, 97)"
 d="M14.180,0.820 C14.726,1.367 15.000,2.031 15.000,2.812 L15.000,12.187 C15.000,12.968 14.726,13.633 14.180,14.179 C13.633,14.726 12.968,14.999 12.187,14.999 L2.812,14.999 C2.031,14.999 1.367,14.726 0.820,14.179 C0.273,13.633 -0.000,12.968 -0.000,12.187 L-0.000,2.812 C-0.000,2.031 0.273,1.367 0.820,0.820 C1.367,0.273 2.031,-0.001 2.812,-0.001 L12.187,-0.001 C12.968,-0.001 13.633,0.273 14.180,0.820 ZM9.609,5.947 L8.203,5.947 L8.203,5.186 C8.203,4.951 8.237,4.785 8.306,4.687 C8.374,4.590 8.545,4.541 8.818,4.541 L9.580,4.541 L9.580,2.988 L8.350,2.988 C7.646,2.988 7.168,3.159 6.914,3.501 C6.660,3.842 6.533,4.356 6.533,5.038 L6.533,5.947 L5.391,5.947 L5.391,7.499 L6.533,7.499 L6.533,12.011 L8.203,12.011 L8.203,7.499 L9.434,7.499 L9.609,5.947 Z"/>
</svg>