<svg 
 xmlns="http://www.w3.org/2000/svg"
 xmlns:xlink="http://www.w3.org/1999/xlink"
 width="28px" height="31px">
<path fill-rule="evenodd"  fill="rgb(255, 255, 255)"
 d="M17.281,22.851 C17.593,24.843 17.242,26.504 16.227,27.831 C15.523,28.730 14.469,29.375 13.062,29.765 C12.046,30.000 11.285,30.136 10.777,30.176 L10.543,30.176 L7.848,30.176 C7.613,30.176 7.262,30.136 6.793,30.058 C5.191,29.824 3.922,29.512 2.984,29.120 C1.695,28.496 0.816,27.618 0.348,26.484 C0.191,25.937 0.093,25.527 0.055,25.254 L0.055,24.081 C0.093,24.004 0.113,23.926 0.113,23.847 C0.152,23.340 0.308,22.832 0.582,22.324 C0.699,22.089 0.777,21.953 0.816,21.914 C1.011,21.836 1.216,21.972 1.432,22.324 C1.646,22.676 1.695,22.988 1.578,23.261 C1.344,23.730 1.265,24.414 1.344,25.312 C1.499,26.406 2.085,27.227 3.102,27.773 C3.687,28.124 4.312,28.359 4.977,28.476 C6.343,28.827 8.043,28.965 10.074,28.887 C11.129,28.887 12.066,28.750 12.887,28.476 C14.019,28.164 14.879,27.597 15.465,26.777 C15.894,26.113 16.109,25.215 16.109,24.081 C16.148,22.754 15.660,21.641 14.645,20.742 C14.566,20.664 14.469,20.624 14.352,20.624 C12.086,20.352 10.152,20.215 8.551,20.215 C7.027,20.293 5.797,20.469 4.859,20.742 C4.781,20.742 4.674,20.762 4.537,20.800 C4.400,20.840 4.293,20.879 4.215,20.918 C4.098,20.918 3.970,20.840 3.834,20.683 C3.697,20.527 3.600,20.371 3.541,20.215 C3.482,20.059 3.492,19.942 3.570,19.863 C5.289,19.199 7.632,18.906 10.602,18.984 C10.757,18.984 11.012,19.004 11.363,19.043 C11.715,19.082 11.988,19.101 12.184,19.101 C12.066,18.984 11.870,18.818 11.598,18.603 C11.324,18.389 11.129,18.242 11.012,18.164 C10.035,17.343 9.664,16.387 9.898,15.293 C9.898,15.214 9.878,15.156 9.840,15.117 L9.723,15.117 C8.824,15.274 7.945,15.274 7.086,15.117 C4.391,14.648 2.574,13.164 1.637,10.663 C1.168,9.453 1.031,8.066 1.227,6.504 C1.422,5.137 1.832,4.043 2.457,3.223 C3.395,1.895 4.859,0.996 6.852,0.527 C7.047,0.488 7.310,0.439 7.643,0.381 C7.974,0.322 8.218,0.293 8.375,0.293 C10.836,0.137 13.492,0.137 16.344,0.293 C16.499,0.293 16.617,0.430 16.695,0.703 C16.773,0.899 16.754,1.084 16.637,1.259 C16.520,1.435 16.344,1.523 16.109,1.523 L13.355,1.523 C13.238,1.523 13.140,1.543 13.062,1.582 C13.140,1.621 13.247,1.699 13.385,1.816 C13.521,1.934 13.609,2.031 13.648,2.109 C15.093,3.477 15.894,4.980 16.051,6.620 C16.246,9.121 15.660,11.132 14.293,12.655 C13.941,13.008 13.297,13.496 12.359,14.120 C12.046,14.355 11.812,14.551 11.656,14.707 C10.874,15.371 10.816,16.094 11.480,16.874 C11.793,17.226 12.184,17.539 12.652,17.812 C14.371,18.984 15.269,19.609 15.348,19.687 L15.348,19.687 C16.441,20.624 17.085,21.680 17.281,22.851 L17.281,22.851 ZM13.531,11.543 C14.195,10.879 14.624,9.843 14.820,8.437 C14.976,6.953 14.781,5.762 14.234,4.863 C13.180,2.988 11.773,1.914 10.016,1.640 C8.375,1.406 6.812,1.661 5.328,2.402 C4.078,3.028 3.257,3.964 2.867,5.215 C2.554,5.957 2.398,6.894 2.398,8.027 C2.398,9.121 2.671,10.157 3.219,11.132 C4.351,13.047 6.168,14.004 8.668,14.004 C10.309,13.965 11.929,13.145 13.531,11.543 L13.531,11.543 ZM27.945,14.414 L27.945,14.765 C27.789,15.079 27.496,15.234 27.066,15.234 L23.961,15.234 C23.687,15.234 23.551,15.351 23.551,15.585 L23.551,18.750 C23.551,19.335 23.355,19.628 22.965,19.628 C22.535,19.551 22.320,19.258 22.320,18.750 L22.320,15.527 C22.320,15.332 22.222,15.234 22.027,15.234 L18.805,15.234 C18.257,15.234 17.984,15.039 17.984,14.648 C17.984,14.218 18.257,14.004 18.805,14.004 L21.969,14.004 C22.203,14.004 22.320,13.867 22.320,13.593 L22.320,10.546 L22.320,10.195 C22.398,9.766 22.613,9.590 22.965,9.667 C23.355,9.667 23.551,9.843 23.551,10.195 L23.551,11.659 C23.551,11.816 23.551,12.031 23.551,12.304 C23.551,12.578 23.551,12.831 23.551,13.066 C23.551,13.300 23.551,13.516 23.551,13.711 C23.551,13.907 23.668,14.004 23.902,14.004 L27.066,14.004 C27.456,14.004 27.749,14.141 27.945,14.414 L27.945,14.414 Z"/>
</svg>