<svg 
 xmlns="http://www.w3.org/2000/svg"
 xmlns:xlink="http://www.w3.org/1999/xlink"
 width="30px" height="31px">
<path fill-rule="evenodd"  fill="rgb(255, 255, 255)"
 d="M29.180,0.937 C29.648,1.406 29.883,2.246 29.883,3.457 C29.883,13.886 29.863,21.718 29.824,26.953 C29.824,28.164 29.580,29.013 29.092,29.501 C28.603,29.991 27.753,30.234 26.543,30.234 L16.875,30.234 C16.210,30.234 15.742,30.116 15.469,29.882 C15.195,29.648 15.078,29.199 15.117,28.535 C15.117,27.402 15.117,25.713 15.117,23.466 C15.117,21.221 15.136,19.531 15.176,18.398 C15.176,17.812 15.078,17.412 14.883,17.197 C14.687,16.983 14.316,16.895 13.770,16.934 C13.222,17.012 12.402,17.012 11.309,16.934 C10.840,16.934 10.605,16.757 10.605,16.405 C10.605,16.016 10.840,15.820 11.309,15.820 C11.504,15.820 11.786,15.820 12.158,15.820 C12.529,15.820 12.861,15.820 13.154,15.820 C13.447,15.820 13.730,15.820 14.004,15.820 C14.473,15.859 14.795,15.781 14.971,15.585 C15.146,15.390 15.214,15.079 15.176,14.648 C15.097,13.516 15.097,12.422 15.176,11.367 C15.214,10.117 15.624,9.189 16.406,8.584 C17.187,7.978 18.203,7.774 19.453,7.969 C20.429,8.085 21.308,8.340 22.090,8.730 C22.128,8.730 22.168,8.750 22.207,8.789 C22.714,9.023 22.910,9.297 22.793,9.609 C22.597,10.039 22.187,10.117 21.562,9.843 C20.508,9.374 19.531,9.140 18.633,9.140 C17.461,9.140 16.758,9.707 16.523,10.839 C16.406,11.269 16.338,11.719 16.318,12.187 C16.298,12.655 16.298,13.184 16.318,13.769 C16.338,14.355 16.348,14.805 16.348,15.117 C16.348,15.195 16.348,15.274 16.348,15.351 C16.386,15.664 16.699,15.820 17.285,15.820 L21.797,15.820 C22.461,15.820 22.793,16.016 22.793,16.405 C22.793,16.953 22.441,17.188 21.738,17.109 C20.801,17.109 19.316,17.071 17.285,16.992 C16.894,16.953 16.631,17.012 16.494,17.168 C16.357,17.324 16.289,17.598 16.289,17.988 C16.367,21.230 16.367,24.492 16.289,27.773 C16.289,28.516 16.641,28.887 17.344,28.887 C18.281,28.887 19.257,28.897 20.273,28.916 C21.289,28.936 22.421,28.965 23.672,29.004 C24.922,29.043 25.898,29.062 26.602,29.062 C27.382,29.062 27.891,28.936 28.125,28.681 C28.359,28.428 28.496,27.891 28.535,27.070 L28.711,3.867 C28.711,2.812 28.594,2.178 28.359,1.962 C28.125,1.749 27.460,1.621 26.367,1.582 C21.328,1.426 13.730,1.347 3.574,1.347 C2.637,1.347 2.070,1.455 1.875,1.670 C1.679,1.885 1.543,2.481 1.465,3.457 C1.465,3.496 1.406,11.191 1.289,26.542 C1.289,27.597 1.415,28.242 1.670,28.476 C1.924,28.711 2.558,28.827 3.574,28.827 C5.839,28.827 7.519,28.848 8.613,28.887 C9.434,28.887 9.863,29.082 9.902,29.472 C9.902,29.941 9.492,30.176 8.672,30.176 L2.754,30.176 C1.074,30.097 0.195,29.180 0.117,27.422 L0.117,15.293 L0.176,15.293 L0.176,3.339 C0.176,2.167 0.410,1.347 0.879,0.878 C1.348,0.409 2.148,0.196 3.281,0.234 L26.660,0.234 C27.870,0.234 28.711,0.469 29.180,0.937 Z"/>
</svg>