<svg 
 xmlns="http://www.w3.org/2000/svg"
 xmlns:xlink="http://www.w3.org/1999/xlink"
 width="31px" height="26px">
<path fill-rule="evenodd"  fill="rgb(255, 255, 255)"
 d="M30.883,4.328 C30.570,4.953 30.277,5.382 30.004,5.617 C29.456,5.969 29.037,6.428 28.744,6.993 C28.451,7.560 28.255,8.069 28.158,8.517 C28.060,8.967 27.972,9.562 27.895,10.304 C27.504,13.937 26.068,17.160 23.588,19.972 C21.107,22.785 18.089,24.582 14.535,25.363 C9.965,26.379 5.746,25.715 1.879,23.370 C1.840,23.333 1.732,23.273 1.557,23.195 C1.381,23.117 1.273,23.059 1.234,23.019 C1.195,22.980 1.126,22.892 1.029,22.755 C0.932,22.619 0.941,22.492 1.059,22.374 C1.097,22.219 1.166,22.111 1.264,22.053 C1.361,21.993 1.459,21.974 1.557,21.993 C1.654,22.014 1.771,22.033 1.908,22.053 C2.045,22.072 2.152,22.081 2.230,22.081 C4.495,22.316 6.293,22.160 7.621,21.613 C8.207,21.457 8.559,21.554 8.676,21.906 C8.754,22.257 8.519,22.512 7.973,22.668 C7.621,22.785 7.103,22.931 6.420,23.107 C5.736,23.283 5.199,23.430 4.809,23.546 C7.035,24.445 9.164,24.835 11.195,24.718 C15.492,24.484 19.007,23.010 21.742,20.295 C24.476,17.580 26.156,14.328 26.781,10.539 C26.859,10.149 26.898,9.875 26.898,9.719 C26.898,9.640 26.898,9.445 26.898,9.132 C26.898,8.820 26.898,8.615 26.898,8.517 C26.898,8.420 26.908,8.224 26.928,7.931 C26.947,7.638 26.986,7.434 27.045,7.316 C27.104,7.199 27.171,7.033 27.250,6.818 C27.328,6.604 27.435,6.437 27.572,6.320 C27.709,6.203 27.874,6.076 28.070,5.939 C28.265,5.802 28.480,5.676 28.715,5.558 C28.636,5.519 28.558,5.461 28.480,5.382 L28.363,5.324 C28.246,5.324 28.060,5.363 27.807,5.441 C27.552,5.519 27.338,5.549 27.162,5.529 C26.986,5.510 26.840,5.382 26.723,5.148 C26.605,4.913 26.595,4.729 26.693,4.592 C26.790,4.455 26.957,4.319 27.191,4.181 C27.426,4.045 27.581,3.938 27.660,3.859 L28.012,3.332 L27.836,3.155 C26.703,3.624 25.531,3.429 24.320,2.570 C22.640,1.437 20.893,1.360 19.076,2.335 C17.260,3.313 16.312,4.836 16.234,6.905 C16.156,8.117 16.019,8.810 15.824,8.986 C15.628,9.162 14.906,9.132 13.656,8.898 C10.258,8.312 6.977,6.554 3.812,3.624 C3.304,4.407 3.158,5.344 3.373,6.437 C3.587,7.531 4.085,8.508 4.867,9.367 C4.945,9.445 5.102,9.552 5.336,9.689 C5.570,9.826 5.707,9.944 5.746,10.041 C5.785,10.139 5.785,10.325 5.746,10.597 C5.629,10.831 5.482,10.969 5.307,11.008 C5.131,11.047 4.896,11.017 4.604,10.919 C4.311,10.822 4.105,10.773 3.988,10.773 C3.754,10.695 3.539,10.637 3.344,10.597 C3.695,12.629 4.788,14.054 6.625,14.874 L7.094,14.992 C7.445,15.071 7.660,15.168 7.738,15.285 C7.816,15.402 7.835,15.559 7.797,15.754 C7.718,16.105 7.211,16.320 6.273,16.398 L5.687,16.515 C6.391,17.960 7.582,18.898 9.262,19.328 L9.672,19.328 C9.710,19.328 9.828,19.348 10.023,19.386 C10.218,19.425 10.355,19.465 10.434,19.504 C10.511,19.543 10.589,19.611 10.668,19.708 C10.746,19.806 10.765,19.953 10.727,20.148 C10.648,20.579 10.238,20.695 9.496,20.500 C7.542,20.148 6.078,19.191 5.102,17.628 C5.062,17.590 4.984,17.482 4.867,17.307 C4.750,17.131 4.671,17.004 4.633,16.926 C4.593,16.848 4.535,16.731 4.457,16.574 C4.378,16.418 4.340,16.281 4.340,16.164 C4.340,16.046 4.349,15.910 4.369,15.754 C4.388,15.598 4.437,15.441 4.516,15.285 C4.516,15.090 4.525,14.972 4.545,14.934 C4.564,14.895 4.476,14.797 4.281,14.640 L4.047,14.465 C3.031,13.449 2.406,12.199 2.172,10.715 C2.172,10.676 2.152,10.558 2.113,10.363 C2.074,10.168 2.055,10.051 2.055,10.011 C2.055,9.973 2.055,9.885 2.055,9.747 C2.055,9.611 2.084,9.513 2.143,9.455 C2.201,9.396 2.289,9.338 2.406,9.279 C2.523,9.220 2.679,9.172 2.875,9.132 C3.227,9.094 3.265,8.898 2.992,8.546 C2.913,8.468 2.875,8.410 2.875,8.370 C2.015,6.613 1.937,4.778 2.641,2.863 C2.875,2.199 3.119,1.848 3.373,1.808 C3.627,1.770 3.988,2.004 4.457,2.511 C6.996,5.285 9.984,7.043 13.422,7.785 C14.008,7.902 14.418,7.893 14.652,7.755 C14.887,7.619 15.023,7.258 15.062,6.672 C15.414,4.250 16.566,2.473 18.520,1.339 C20.472,0.207 22.406,0.207 24.320,1.339 C25.961,2.277 27.504,2.277 28.949,1.339 C29.456,1.105 29.828,1.105 30.062,1.339 C30.257,1.535 30.218,1.887 29.945,2.394 C29.906,2.551 29.828,2.746 29.711,2.980 C29.594,3.215 29.515,3.390 29.477,3.508 C29.632,3.664 29.847,3.684 30.121,3.566 C30.238,3.527 30.316,3.508 30.355,3.508 L30.355,3.508 C30.980,3.508 31.156,3.781 30.883,4.328 L30.883,4.328 Z"/>
</svg>