<svg 
 xmlns="http://www.w3.org/2000/svg"
 xmlns:xlink="http://www.w3.org/1999/xlink"
 width="30px" height="31px">
<path fill-rule="evenodd"  fill="rgb(255, 255, 255)"
 d="M30.000,27.304 C30.000,28.359 29.785,29.101 29.355,29.531 C28.925,29.961 28.184,30.195 27.129,30.234 L2.812,30.234 C0.976,30.234 0.038,29.317 -0.000,27.480 L-0.000,21.504 C-0.000,20.800 0.214,20.449 0.645,20.449 C0.996,20.489 1.172,20.840 1.172,21.504 L1.172,27.187 C1.172,28.438 1.777,29.062 2.988,29.062 L27.012,29.062 C28.222,29.062 28.828,28.476 28.828,27.304 L28.828,17.870 C28.828,17.441 28.749,17.138 28.594,16.962 C28.437,16.787 28.163,16.719 27.773,16.757 C27.460,16.836 27.167,16.836 26.895,16.757 C25.605,16.563 24.580,16.669 23.818,17.080 C23.057,17.490 22.461,18.339 22.031,19.628 C21.640,20.996 20.693,22.110 19.189,22.969 C17.685,23.828 16.230,24.179 14.824,24.023 C13.066,23.828 11.523,23.203 10.195,22.148 C8.867,21.093 8.007,19.785 7.617,18.222 C7.343,17.129 6.680,16.640 5.625,16.757 L1.289,16.757 C0.429,16.836 -0.000,16.465 -0.000,15.644 L-0.000,2.519 C0.078,0.996 0.996,0.234 2.754,0.234 L23.437,0.234 L27.246,0.234 C29.082,0.234 30.000,1.152 30.000,2.988 L30.000,15.234 L30.000,27.304 ZM19.951,20.771 C21.220,19.502 21.855,17.910 21.855,15.996 C21.855,14.160 21.220,12.627 19.951,11.396 C18.681,10.166 17.070,9.512 15.117,9.434 C13.359,9.395 11.807,10.059 10.459,11.426 C9.111,12.793 8.437,14.355 8.437,16.113 C8.437,17.910 9.131,19.492 10.518,20.859 C11.904,22.227 13.456,22.832 15.176,22.676 C17.089,22.676 18.681,22.041 19.951,20.771 ZM28.564,15.234 C28.779,15.039 28.867,14.687 28.828,14.180 C28.749,10.508 28.749,6.855 28.828,3.223 C28.828,2.559 28.682,2.080 28.389,1.786 C28.096,1.494 27.598,1.368 26.895,1.406 L15.117,1.406 L2.930,1.406 C2.304,1.406 1.855,1.533 1.582,1.786 C1.308,2.041 1.172,2.481 1.172,3.105 L1.172,14.296 C1.172,14.765 1.260,15.079 1.436,15.234 C1.611,15.390 1.913,15.449 2.344,15.410 C4.414,15.410 5.586,15.430 5.859,15.469 C6.406,15.585 6.797,15.547 7.031,15.351 C7.266,15.156 7.441,14.785 7.559,14.238 C7.988,12.442 8.945,10.967 10.430,9.814 C11.914,8.662 13.535,8.125 15.293,8.203 C17.051,8.281 18.623,8.847 20.010,9.902 C21.396,10.957 22.324,12.383 22.793,14.180 C22.988,15.079 23.496,15.508 24.316,15.469 C25.254,15.351 26.309,15.332 27.480,15.410 C27.988,15.488 28.349,15.430 28.564,15.234 ZM26.484,4.101 C26.719,4.375 26.836,5.195 26.836,6.562 C26.836,7.851 26.679,8.662 26.367,8.993 C26.054,9.326 25.292,9.492 24.082,9.492 C22.831,9.492 22.040,9.316 21.709,8.965 C21.377,8.613 21.211,7.754 21.211,6.386 C21.211,5.058 21.347,4.277 21.621,4.043 C21.894,3.808 22.773,3.691 24.258,3.691 C25.507,3.691 26.250,3.829 26.484,4.101 ZM25.723,6.445 C25.683,5.781 25.556,5.322 25.342,5.068 C25.127,4.814 24.706,4.766 24.082,4.921 C23.457,4.804 23.007,4.854 22.734,5.068 C22.461,5.283 22.343,5.722 22.383,6.386 C22.421,7.089 22.529,7.579 22.705,7.851 C22.881,8.125 23.300,8.242 23.965,8.203 C24.629,8.164 25.087,8.027 25.342,7.793 C25.595,7.558 25.723,7.110 25.723,6.445 L25.723,6.445 ZM17.637,19.922 C17.597,20.078 17.607,20.185 17.666,20.243 C17.725,20.303 17.685,20.371 17.549,20.449 C17.411,20.527 17.334,20.576 17.314,20.595 C17.294,20.615 17.206,20.664 17.051,20.742 L16.816,20.800 C15.917,21.074 15.312,21.191 15.000,21.152 C13.437,21.152 12.109,20.478 11.016,19.131 C9.922,17.783 9.589,16.368 10.020,14.882 C10.020,14.844 10.039,14.746 10.078,14.589 C10.117,14.434 10.156,14.317 10.195,14.238 C10.234,14.160 10.292,14.092 10.371,14.032 C10.449,13.974 10.566,13.965 10.723,14.004 C11.113,14.043 11.269,14.414 11.191,15.117 C10.918,16.757 11.328,18.037 12.422,18.954 C13.515,19.873 14.863,20.118 16.465,19.687 C17.129,19.453 17.520,19.531 17.637,19.922 L17.637,19.922 Z"/>
</svg>