<svg 
 xmlns="http://www.w3.org/2000/svg"
 xmlns:xlink="http://www.w3.org/1999/xlink"
 width="15px" height="15px">
<path fill-rule="evenodd"  fill="rgb(97, 97, 97)"
 d="M14.180,0.820 C14.726,1.367 15.000,2.031 15.000,2.812 L15.000,12.187 C15.000,12.968 14.726,13.633 14.180,14.179 C13.633,14.726 12.968,14.999 12.187,14.999 L2.812,14.999 C2.031,14.999 1.367,14.726 0.820,14.179 C0.273,13.633 -0.000,12.968 -0.000,12.187 L-0.000,2.812 C-0.000,2.031 0.273,1.367 0.820,0.820 C1.367,0.273 2.031,-0.001 2.812,-0.001 L12.187,-0.001 C12.968,-0.001 13.633,0.273 14.180,0.820 ZM12.187,3.164 C12.187,2.929 12.070,2.812 11.836,2.812 L3.164,2.812 C2.930,2.812 2.812,2.929 2.812,3.164 L2.812,11.836 C2.812,12.070 2.930,12.187 3.164,12.187 L11.836,12.187 C12.070,12.187 12.187,12.070 12.187,11.836 L12.187,3.164 ZM9.375,5.625 L11.250,5.625 L11.250,3.749 L9.375,3.749 L9.375,5.625 ZM7.500,5.625 C8.008,5.625 8.447,5.811 8.818,6.182 C9.189,6.552 9.375,6.992 9.375,7.499 C9.375,8.008 9.189,8.447 8.818,8.818 C8.447,9.190 8.008,9.375 7.500,9.375 C6.992,9.375 6.552,9.190 6.182,8.818 C5.810,8.447 5.625,8.008 5.625,7.499 C5.625,6.992 5.810,6.552 6.182,6.182 C6.552,5.811 6.992,5.625 7.500,5.625 ZM10.225,7.031 L11.250,7.031 L11.250,11.249 L3.750,11.249 L3.750,7.031 L4.775,7.031 C4.736,7.265 4.717,7.422 4.717,7.499 C4.717,8.281 4.990,8.940 5.537,9.477 C6.084,10.015 6.738,10.283 7.500,10.283 C8.262,10.283 8.916,10.015 9.463,9.477 C10.009,8.940 10.283,8.281 10.283,7.499 C10.283,7.422 10.264,7.265 10.225,7.031 L10.225,7.031 Z"/>
</svg>