<svg 
 xmlns="http://www.w3.org/2000/svg"
 xmlns:xlink="http://www.w3.org/1999/xlink"
 width="15px" height="15px">
<path fill-rule="evenodd"  fill="rgb(97, 97, 97)"
 d="M14.180,0.820 C14.726,1.367 15.000,2.031 15.000,2.812 L15.000,12.187 C15.000,12.968 14.726,13.633 14.180,14.179 C13.633,14.726 12.968,15.000 12.187,15.000 L2.812,15.000 C2.031,15.000 1.367,14.726 0.820,14.179 C0.273,13.633 -0.000,12.968 -0.000,12.187 L-0.000,2.812 C-0.000,2.031 0.273,1.367 0.820,0.820 C1.367,0.273 2.031,-0.001 2.812,-0.001 L12.187,-0.001 C12.968,-0.001 13.633,0.273 14.180,0.820 ZM5.625,4.570 L3.750,4.570 L3.750,11.132 L5.625,11.132 L5.625,4.570 ZM5.625,3.281 C5.625,3.047 5.542,2.841 5.376,2.666 C5.210,2.490 5.000,2.402 4.746,2.402 C4.492,2.402 4.282,2.490 4.116,2.666 C3.950,2.841 3.867,3.047 3.867,3.281 C3.867,3.535 3.950,3.745 4.116,3.910 C4.282,4.077 4.492,4.160 4.746,4.160 C5.000,4.160 5.210,4.077 5.376,3.910 C5.542,3.745 5.625,3.535 5.625,3.281 L5.625,3.281 ZM12.187,7.118 C12.187,6.611 12.119,6.172 11.982,5.801 C11.846,5.430 11.675,5.166 11.470,5.009 C11.265,4.853 11.069,4.741 10.884,4.672 C10.698,4.604 10.507,4.570 10.312,4.570 C9.590,4.570 8.965,4.775 8.437,5.185 L8.437,4.570 L6.562,4.570 L6.562,11.132 L8.437,11.132 L8.437,7.090 L8.496,6.885 C8.555,6.748 8.676,6.611 8.862,6.474 C9.048,6.338 9.287,6.269 9.580,6.269 C10.068,6.269 10.312,6.543 10.312,7.090 L10.312,11.132 L12.187,11.132 L12.187,7.118 Z"/>
</svg>