<svg 
 xmlns="http://www.w3.org/2000/svg"
 xmlns:xlink="http://www.w3.org/1999/xlink"
 width="36px" height="36px">
<path fill-rule="evenodd"  fill="rgb(252, 95, 69)"
 d="M35.969,5.968 C35.969,7.479 35.447,8.755 34.406,9.796 C33.364,10.839 32.114,11.359 30.656,11.359 C28.625,11.359 27.088,10.474 26.047,8.702 L10.500,15.265 C10.604,15.786 10.656,16.255 10.656,16.671 C10.656,17.558 10.448,18.417 10.031,19.250 L20.031,26.437 C21.125,25.240 22.453,24.640 24.016,24.640 C25.473,24.640 26.723,25.175 27.766,26.241 C28.807,27.310 29.328,28.573 29.328,30.031 C29.328,31.489 28.807,32.740 27.766,33.781 C26.723,34.823 25.473,35.343 24.016,35.343 C22.557,35.343 21.307,34.823 20.266,33.781 C19.223,32.740 18.703,31.489 18.703,30.031 C18.703,29.042 18.885,28.208 19.250,27.531 L9.250,20.265 C8.207,21.412 6.906,21.984 5.344,21.984 C3.885,21.984 2.635,21.476 1.594,20.461 C0.551,19.445 0.031,18.183 0.031,16.671 C0.031,15.162 0.551,13.898 1.594,12.883 C2.635,11.867 3.885,11.359 5.344,11.359 C7.426,11.359 8.963,12.245 9.953,14.015 L25.578,7.453 C25.422,6.984 25.344,6.490 25.344,5.968 C25.344,4.511 25.864,3.260 26.906,2.218 C27.947,1.177 29.198,0.655 30.656,0.655 C32.114,0.655 33.364,1.177 34.406,2.218 C35.447,3.260 35.969,4.511 35.969,5.968 L35.969,5.968 ZM20.031,30.031 C20.031,31.125 20.422,32.062 21.203,32.843 C21.984,33.625 22.922,34.015 24.016,34.015 C25.109,34.015 26.047,33.625 26.828,32.843 C27.609,32.062 28.000,31.125 28.000,30.031 C28.000,28.886 27.609,27.921 26.828,27.141 C26.047,26.359 25.109,25.968 24.016,25.968 C22.922,25.968 21.984,26.359 21.203,27.141 C20.422,27.921 20.031,28.886 20.031,30.031 L20.031,30.031 ZM9.328,16.671 C9.328,15.578 8.937,14.640 8.156,13.859 C7.375,13.077 6.437,12.687 5.344,12.687 C4.250,12.687 3.312,13.077 2.531,13.859 C1.750,14.640 1.359,15.578 1.359,16.671 C1.359,17.765 1.750,18.703 2.531,19.484 C3.312,20.265 4.250,20.656 5.344,20.656 C6.437,20.656 7.375,20.265 8.156,19.484 C8.937,18.703 9.328,17.765 9.328,16.671 ZM34.641,5.968 C34.641,4.874 34.250,3.937 33.469,3.156 C32.688,2.375 31.750,1.984 30.656,1.984 C29.562,1.984 28.625,2.375 27.844,3.156 C27.062,3.937 26.672,4.874 26.672,5.968 C26.672,7.115 27.062,8.078 27.844,8.859 C28.625,9.640 29.562,10.031 30.656,10.031 C31.750,10.031 32.688,9.640 33.469,8.859 C34.250,8.078 34.641,7.115 34.641,5.968 L34.641,5.968 Z"/>
</svg>