<svg 
 xmlns="http://www.w3.org/2000/svg"
 xmlns:xlink="http://www.w3.org/1999/xlink"
 width="15px" height="16px">
<path fill-rule="evenodd"  fill="rgb(252, 95, 69)"
 d="M14.997,7.767 C14.997,9.850 14.268,11.621 12.811,13.078 C11.353,14.538 9.583,15.266 7.501,15.266 C5.419,15.266 3.649,14.538 2.192,13.078 C0.734,11.621 0.006,9.850 0.006,7.767 C0.006,5.683 0.734,3.913 2.192,2.454 C3.649,0.995 5.419,0.267 7.501,0.267 C9.583,0.267 11.353,0.995 12.811,2.454 C14.268,3.913 14.997,5.683 14.997,7.767 ZM13.747,7.767 C13.747,6.047 13.136,4.577 11.913,3.352 C10.689,2.129 9.219,1.516 7.501,1.516 C5.784,1.516 4.313,2.129 3.090,3.352 C1.866,4.577 1.255,6.047 1.255,7.767 C1.255,9.485 1.866,10.956 3.090,12.180 C4.313,13.405 5.784,14.016 7.501,14.016 C9.219,14.016 10.689,13.405 11.913,12.180 C13.136,10.956 13.747,9.485 13.747,7.767 ZM7.501,4.017 C8.542,4.017 9.427,4.381 10.156,5.110 C10.884,5.839 11.249,6.725 11.249,7.767 C11.249,8.808 10.884,9.694 10.156,10.422 C9.427,11.152 8.542,11.516 7.501,11.516 C6.460,11.516 5.575,11.152 4.847,10.422 C4.118,9.694 3.754,8.808 3.754,7.767 C3.754,6.725 4.118,5.839 4.847,5.110 C5.575,4.381 6.460,4.017 7.501,4.017 Z"/>
</svg>