<svg 
 xmlns="http://www.w3.org/2000/svg"
 xmlns:xlink="http://www.w3.org/1999/xlink"
 width="15px" height="15px">
<path fill-rule="evenodd"  fill="rgb(56, 198, 149)"
 d="M14.997,7.517 C14.997,9.598 14.268,11.367 12.811,12.823 C11.353,14.279 9.583,15.007 7.501,15.007 C5.419,15.007 3.649,14.279 2.192,12.823 C0.734,11.367 0.006,9.598 0.006,7.517 C0.006,5.437 0.734,3.669 2.192,2.212 C3.649,0.756 5.419,0.028 7.501,0.028 C9.583,0.028 11.353,0.756 12.811,2.212 C14.268,3.669 14.997,5.437 14.997,7.517 ZM13.747,7.517 C13.747,5.801 13.136,4.332 11.913,3.109 C10.689,1.887 9.219,1.276 7.501,1.276 C5.784,1.276 4.313,1.887 3.090,3.109 C1.866,4.332 1.255,5.801 1.255,7.517 C1.255,9.234 1.866,10.704 3.090,11.925 C4.313,13.148 5.784,13.759 7.501,13.759 C9.219,13.759 10.689,13.148 11.913,11.925 C13.136,10.704 13.747,9.234 13.747,7.517 ZM7.501,3.772 C8.542,3.772 9.427,4.137 10.156,4.865 C10.884,5.593 11.249,6.478 11.249,7.517 C11.249,8.558 10.884,9.442 10.156,10.170 C9.427,10.899 8.542,11.262 7.501,11.262 C6.460,11.262 5.575,10.899 4.847,10.170 C4.118,9.442 3.754,8.558 3.754,7.517 C3.754,6.478 4.118,5.593 4.847,4.865 C5.575,4.137 6.460,3.772 7.501,3.772 Z"/>
</svg>