<svg 
 xmlns="http://www.w3.org/2000/svg"
 xmlns:xlink="http://www.w3.org/1999/xlink"
 width="15px" height="16px">
<path fill-rule="evenodd"  fill="rgb(178, 124, 245)"
 d="M14.997,8.483 C14.997,10.575 14.268,12.353 12.811,13.816 C11.353,15.281 9.583,16.013 7.501,16.013 C5.419,16.013 3.649,15.281 2.192,13.816 C0.734,12.353 0.006,10.575 0.006,8.483 C0.006,6.392 0.734,4.615 2.192,3.150 C3.649,1.686 5.419,0.954 7.501,0.954 C9.583,0.954 11.353,1.686 12.811,3.150 C14.268,4.615 14.997,6.392 14.997,8.483 ZM13.747,8.483 C13.747,6.758 13.136,5.281 11.913,4.052 C10.689,2.823 9.219,2.209 7.501,2.209 C5.784,2.209 4.313,2.823 3.090,4.052 C1.866,5.281 1.255,6.758 1.255,8.483 C1.255,10.209 1.866,11.686 3.090,12.915 C4.313,14.144 5.784,14.758 7.501,14.758 C9.219,14.758 10.689,14.144 11.913,12.915 C13.136,11.686 13.747,10.209 13.747,8.483 ZM7.501,4.718 C8.542,4.718 9.427,5.085 10.156,5.816 C10.884,6.549 11.249,7.437 11.249,8.483 C11.249,9.529 10.884,10.418 10.156,11.150 C9.427,11.882 8.542,12.248 7.501,12.248 C6.460,12.248 5.575,11.882 4.847,11.150 C4.118,10.418 3.754,9.529 3.754,8.483 C3.754,7.437 4.118,6.549 4.847,5.816 C5.575,5.085 6.460,4.718 7.501,4.718 Z"/>
</svg>