<svg 
 xmlns="http://www.w3.org/2000/svg"
 xmlns:xlink="http://www.w3.org/1999/xlink"
 width="51px" height="48px">
<path fill-rule="evenodd"  fill="rgb(252, 95, 69)"
 d="M6.323,45.437 L49.768,45.437 L49.768,47.395 L4.366,47.395 L4.366,39.465 L0.452,39.465 L0.452,37.507 L4.366,37.507 L4.366,29.576 L0.452,29.576 L0.452,27.618 L4.366,27.618 L4.366,19.785 L0.452,19.785 L0.452,17.827 L4.366,17.827 L4.366,9.897 L0.452,9.897 L0.452,7.938 L4.366,7.938 L4.366,0.007 L6.323,0.007 L6.323,30.849 L20.218,14.400 L30.002,24.289 L48.985,1.378 L50.551,2.553 L30.002,27.030 L20.218,17.239 L6.323,33.982 L6.323,45.437 Z"/>
</svg>