<svg 
 xmlns="http://www.w3.org/2000/svg"
 xmlns:xlink="http://www.w3.org/1999/xlink"
 width="51px" height="44px">
<path fill-rule="evenodd"  fill="rgb(178, 124, 245)"
 d="M50.551,13.686 C50.551,17.388 49.245,20.551 46.637,23.170 L25.501,43.222 L4.366,23.367 C1.756,20.681 0.452,17.469 0.452,13.734 C0.452,9.999 1.756,6.821 4.366,4.200 C6.910,1.644 10.171,0.366 14.151,0.366 C17.869,0.366 21.000,1.644 23.544,4.200 C24.587,5.511 25.306,6.494 25.697,7.149 C26.218,6.101 26.935,5.118 27.850,4.200 C30.394,1.644 33.525,0.366 37.243,0.366 C40.961,0.366 44.093,1.644 46.637,4.200 C49.245,6.821 50.551,9.984 50.551,13.686 ZM48.398,13.440 C48.398,10.294 47.288,7.608 45.071,5.380 C42.983,3.153 40.309,2.038 37.047,2.038 C33.851,2.038 31.143,3.153 28.926,5.380 C28.403,6.035 27.850,6.789 27.263,7.640 L25.501,10.589 L23.740,7.640 C23.349,6.986 22.794,6.232 22.077,5.380 C19.858,3.153 17.151,2.038 13.955,2.038 C10.758,2.038 8.019,3.217 5.736,5.576 C3.518,7.804 2.409,10.491 2.409,13.636 C2.409,16.847 3.518,19.568 5.736,21.794 L25.501,40.765 L45.267,21.794 C47.354,19.698 48.398,16.913 48.398,13.440 L48.398,13.440 Z"/>
</svg>