<svg 
 xmlns="http://www.w3.org/2000/svg"
 xmlns:xlink="http://www.w3.org/1999/xlink"
 width="51px" height="46px">
<path fill-rule="evenodd"  fill="rgb(254, 185, 96)"
 d="M50.490,18.307 L48.535,18.307 L48.535,45.286 L2.402,45.286 L2.402,18.307 L0.447,18.307 L0.447,10.557 L16.378,10.557 C15.401,9.446 14.912,8.170 14.912,6.731 C14.912,5.097 15.465,3.724 16.574,2.611 C17.681,1.499 19.049,0.943 20.679,0.943 C22.829,0.943 24.425,1.761 25.468,3.395 C26.510,1.761 28.107,0.943 30.257,0.943 C31.886,0.943 33.254,1.499 34.363,2.611 C35.470,3.724 36.024,5.097 36.024,6.731 C36.024,8.170 35.535,9.446 34.558,10.557 L50.490,10.557 L50.490,18.307 ZM27.570,3.984 C26.820,4.769 26.446,5.685 26.446,6.731 L26.446,10.557 L30.257,10.557 C31.299,10.557 32.212,10.181 32.994,9.429 C33.776,8.678 34.167,7.778 34.167,6.731 C34.167,5.620 33.791,4.688 33.043,3.935 C32.293,3.184 31.365,2.806 30.257,2.806 C29.214,2.806 28.318,3.199 27.570,3.984 ZM17.942,9.429 C18.724,10.181 19.636,10.557 20.679,10.557 L24.491,10.557 L24.491,6.731 C24.491,5.685 24.115,4.769 23.367,3.984 C22.617,3.199 21.721,2.806 20.679,2.806 C19.570,2.806 18.642,3.184 17.893,3.935 C17.143,4.688 16.769,5.620 16.769,6.731 C16.769,7.778 17.160,8.678 17.942,9.429 ZM2.402,16.345 L24.491,16.345 L24.491,12.519 L2.402,12.519 L2.402,16.345 ZM4.259,43.422 L24.491,43.422 L24.491,18.307 L4.259,18.307 L4.259,43.422 ZM46.678,18.307 L26.446,18.307 L26.446,43.422 L46.678,43.422 L46.678,18.307 ZM48.535,12.519 L26.446,12.519 L26.446,16.345 L48.535,16.345 L48.535,12.519 Z"/>
</svg>