<svg 
 xmlns="http://www.w3.org/2000/svg"
 xmlns:xlink="http://www.w3.org/1999/xlink"
 width="16px" height="16px">
<path fill-rule="evenodd"  fill="rgb(254, 185, 96)"
 d="M15.955,8.496 C15.955,10.584 15.227,12.358 13.772,13.819 C12.315,15.280 10.548,16.011 8.468,16.011 C6.388,16.011 4.621,15.280 3.165,13.819 C1.709,12.358 0.981,10.584 0.981,8.496 C0.981,6.408 1.709,4.634 3.165,3.173 C4.621,1.712 6.388,0.981 8.468,0.981 C10.548,0.981 12.315,1.712 13.772,3.173 C15.227,4.634 15.955,6.408 15.955,8.496 ZM14.707,8.496 C14.707,6.774 14.096,5.300 12.875,4.073 C11.652,2.847 10.184,2.233 8.468,2.233 C6.752,2.233 5.283,2.847 4.062,4.073 C2.840,5.300 2.229,6.774 2.229,8.496 C2.229,10.218 2.840,11.693 4.062,12.919 C5.283,14.145 6.752,14.758 8.468,14.758 C10.184,14.758 11.652,14.145 12.875,12.919 C14.096,11.693 14.707,10.218 14.707,8.496 ZM8.468,4.738 C9.508,4.738 10.392,5.104 11.120,5.834 C11.847,6.565 12.212,7.452 12.212,8.496 C12.212,9.540 11.847,10.427 11.120,11.157 C10.392,11.888 9.508,12.253 8.468,12.253 C7.428,12.253 6.544,11.888 5.817,11.157 C5.088,10.427 4.725,9.540 4.725,8.496 C4.725,7.452 5.088,6.565 5.817,5.834 C6.544,5.104 7.428,4.738 8.468,4.738 Z"/>
</svg>