<svg 
 xmlns="http://www.w3.org/2000/svg"
 xmlns:xlink="http://www.w3.org/1999/xlink"
 width="47px" height="51px">
<path fill-rule="evenodd"  fill="rgb(56, 198, 149)"
 d="M7.699,29.971 C4.208,33.492 2.464,37.729 2.464,42.682 L2.464,46.691 L24.480,46.691 L24.480,48.647 L0.409,48.647 L0.409,42.682 C0.409,38.120 1.779,34.046 4.519,30.461 C7.258,26.876 10.715,24.529 14.891,23.420 C12.934,22.378 11.335,20.912 10.096,19.021 C8.856,17.130 8.237,15.011 8.237,12.665 C8.237,9.341 9.426,6.505 11.808,4.159 C14.189,1.812 17.010,0.638 20.272,0.638 C23.599,0.638 26.437,1.812 28.785,4.159 C31.134,6.505 32.308,9.341 32.308,12.665 C32.308,15.011 31.704,17.148 30.498,19.069 C29.290,20.993 27.675,22.442 25.654,23.420 C29.045,24.268 32.078,26.029 34.754,28.700 L31.721,28.700 C28.394,26.029 24.642,24.691 20.468,24.691 C15.444,24.691 11.188,26.451 7.699,29.971 ZM20.468,22.638 C23.272,22.638 25.654,21.677 27.611,19.753 C29.568,17.832 30.547,15.469 30.547,12.665 C30.547,9.863 29.568,7.500 27.611,5.576 C25.654,3.655 23.272,2.692 20.468,2.692 C17.663,2.692 15.297,3.655 13.374,5.576 C11.449,7.500 10.488,9.863 10.488,12.665 C10.488,15.469 11.449,17.832 13.374,19.753 C15.297,21.677 17.663,22.638 20.468,22.638 ZM46.594,44.736 L40.527,44.736 L40.527,50.700 L38.570,50.700 L38.570,44.736 L32.503,44.736 L32.503,42.682 L38.570,42.682 L38.570,36.718 L40.527,36.718 L40.527,42.682 L46.594,42.682 L46.594,44.736 Z"/>
</svg>