<svg 
 xmlns="http://www.w3.org/2000/svg"
 xmlns:xlink="http://www.w3.org/1999/xlink"
 width="15px" height="15px">
<path fill-rule="evenodd"  fill="rgb(97, 97, 97)"
 d="M14.180,0.820 C14.726,1.367 15.000,2.031 15.000,2.812 L15.000,12.187 C15.000,12.968 14.726,13.633 14.180,14.179 C13.633,14.726 12.968,14.999 12.187,14.999 L2.812,14.999 C2.031,14.999 1.367,14.726 0.820,14.179 C0.273,13.633 -0.000,12.968 -0.000,12.187 L-0.000,2.812 C-0.000,2.031 0.273,1.367 0.820,0.820 C1.367,0.273 2.031,-0.001 2.812,-0.001 L12.187,-0.001 C12.968,-0.001 13.633,0.273 14.180,0.820 ZM12.158,4.863 C11.884,4.980 11.533,5.078 11.104,5.156 C11.514,4.903 11.777,4.560 11.895,4.130 C11.543,4.346 11.152,4.492 10.723,4.570 C10.371,4.180 9.922,3.984 9.375,3.984 C8.867,3.984 8.432,4.170 8.071,4.541 C7.710,4.912 7.529,5.342 7.529,5.830 C7.529,5.927 7.549,6.074 7.588,6.269 C6.025,6.172 4.756,5.527 3.779,4.336 C3.604,4.648 3.516,4.961 3.516,5.273 C3.516,5.918 3.799,6.426 4.365,6.796 C4.053,6.796 3.769,6.719 3.516,6.562 L3.516,6.591 C3.516,7.021 3.657,7.407 3.940,7.749 C4.223,8.091 4.580,8.310 5.010,8.407 C4.775,8.447 4.609,8.467 4.512,8.467 C4.355,8.467 4.238,8.457 4.160,8.437 C4.433,9.257 5.010,9.687 5.889,9.726 C5.205,10.253 4.443,10.517 3.604,10.517 C3.545,10.517 3.467,10.512 3.369,10.502 C3.271,10.493 3.203,10.488 3.164,10.488 C4.023,11.035 4.961,11.309 5.977,11.309 C7.578,11.309 8.857,10.767 9.814,9.682 C10.771,8.598 11.250,7.392 11.250,6.064 C11.250,6.025 11.245,5.981 11.235,5.932 C11.225,5.884 11.221,5.849 11.221,5.830 C11.572,5.595 11.884,5.273 12.158,4.863 L12.158,4.863 Z"/>
</svg>